<?xml version="1.0" standalone="no"?><!-- Generator: Gravit.io --><svg xmlns="http://www.w3.org/2000/svg" xmlns:xlink="http://www.w3.org/1999/xlink" style="isolation:isolate" viewBox="594 707.34 733.006 196.66" width="733.006" height="196.66"><defs><clipPath id="_clipPath_qIjdN9qyTjwQgNhN6wRUdIG6J3CQBao3"><rect x="594" y="707.34" width="733.006" height="196.66"/></clipPath></defs><g clip-path="url(#_clipPath_qIjdN9qyTjwQgNhN6wRUdIG6J3CQBao3)"><g><path d=" M 826.417 904 L 893.46 904 L 893.46 707.34 L 826.417 769.914 L 826.417 904 Z  M 1327.006 707.34 L 1268.902 765.444 L 1268.902 904 L 1201.859 904 L 1201.859 765.444 L 1139.285 765.444 L 1139.285 707.34 L 1327.006 707.34 Z  M 1116.937 707.34 L 1116.937 765.444 L 996.259 765.444 C 965.509 779.21 966.984 833.56 996.259 845.896 L 1116.937 845.896 L 1116.937 904 L 987.32 904 C 902.801 891.262 875.358 741.308 987.32 707.34 L 1116.937 707.34 Z  M 741.495 904 L 594 904 L 594 707.34 L 737.026 707.34 C 845.099 762.852 817.03 861.539 741.495 904 Z  M 711.639 764.729 L 652.104 764.729 L 652.104 846.611 L 713.516 846.611 C 744.937 828.912 756.602 787.836 711.639 764.729 Z " fill-rule="evenodd" fill="rgb(225,39,104)"/></g></g></svg>