<?xml version="1.0" encoding="UTF-8" standalone="no"?>
<!DOCTYPE svg PUBLIC "-//W3C//DTD SVG 1.1//EN" "http://www.w3.org/Graphics/SVG/1.1/DTD/svg11.dtd">
<svg width="100%" height="100%" viewBox="0 0 7016 4961" version="1.1" xmlns="http://www.w3.org/2000/svg" xmlns:xlink="http://www.w3.org/1999/xlink" xml:space="preserve" xmlns:serif="http://www.serif.com/" style="fill-rule:evenodd;clip-rule:evenodd;stroke-linejoin:round;stroke-miterlimit:1.41421;">
    <g transform="matrix(38.8415,0,0,38.8415,-132670,-93807.7)">
        <path d="M3476,2501L3491,2501L3491,2457L3476,2471L3476,2501ZM3588,2457L3575,2470L3575,2501L3560,2501L3560,2470L3546,2470L3546,2457L3588,2457ZM3541,2457L3541,2470L3514,2470C3507.12,2473.08 3507.45,2485.24 3514,2488L3541,2488L3541,2501L3512,2501C3493.09,2498.15 3486.95,2464.6 3512,2457L3541,2457ZM3457,2501L3424,2501L3424,2457L3456,2457C3480.18,2469.42 3473.9,2491.5 3457,2501ZM3450.32,2469.84L3437,2469.84L3437,2488.16L3450.74,2488.16C3457.77,2484.2 3460.38,2475.01 3450.32,2469.84Z" style="fill:rgb(244,254,253);"/>
    </g>
</svg>
